<svg version="1.0" xmlns="http://www.w3.org/2000/svg"
 width="280.000000pt" height="110.000000pt" viewBox="75 70 290 115"
 preserveAspectRatio="xMidYMid meet">
<g transform="translate(0.000000,254.000000) scale(0.100000,-0.100000)"
fill="#ffd700" stroke="none">
<path d="M1595 1714 c-93 -24 -125 -36 -125 -49 0 -8 -11 -22 -25 -31 -27 -18
-37 -14 -80 34 -17 19 -36 24 -120 32 -153 15 -320 13 -334 -4 -14 -17 -13 12
-17 -463 -5 -462 -15 -421 99 -408 101 12 98 7 97 153 -1 70 -1 137 -1 150 1
20 6 22 59 22 73 1 195 24 200 39 2 6 10 11 17 11 8 0 23 12 34 26 l20 25 3
-53 c2 -29 0 -96 -3 -148 -6 -85 -4 -100 15 -139 35 -72 73 -86 236 -86 159 0
199 7 240 41 22 19 30 22 30 11 0 -35 29 -47 109 -47 111 0 114 3 114 133 0
59 1 107 3 107 9 0 93 -152 99 -180 4 -19 13 -38 19 -42 6 -4 48 -8 94 -8 80
0 83 1 92 26 6 14 10 78 10 142 0 65 4 158 8 207 8 80 15 276 15 423 0 66 -7
72 -94 72 -83 0 -120 -22 -103 -61 6 -13 9 -33 7 -44 -2 -11 -6 -49 -8 -85 -2
-36 -4 -67 -5 -70 -1 -11 -65 109 -87 165 -33 83 -50 95 -133 95 -102 0 -102
0 -94 -80 4 -45 3 -70 -5 -74 -6 -4 -11 -37 -11 -81 0 -41 -4 -77 -10 -80 -11
-7 -12 9 -10 145 1 145 -30 169 -225 175 -60 2 -119 2 -130 -1z m-427 -95 c17
-6 33 -18 36 -27 9 -28 11 -330 3 -338 -4 -5 -32 -11 -62 -14 l-55 -6 -1 60
c-2 231 6 323 30 329 9 3 16 5 17 6 1 0 15 -4 32 -10z m567 -354 l0 -280 -49
-3 c-32 -2 -52 1 -58 10 -4 7 -8 101 -8 208 0 107 -1 202 -2 210 -3 18 12 121
19 133 3 4 26 7 51 5 l47 -3 0 -280z"/>
<path d="M2556 1701 c-14 -15 -15 -24 -7 -39 12 -22 50 -32 123 -32 46 0 49
-2 43 -21 -33 -104 -87 -337 -87 -372 1 -9 -3 -15 -9 -12 -5 4 -9 -1 -9 -10 0
-15 -53 -205 -85 -306 -8 -26 -15 -52 -15 -58 0 -13 407 -16 426 -3 6 4 14 16
17 26 7 18 8 18 30 -1 57 -53 217 -72 352 -43 78 16 113 35 120 63 2 12 8 187
12 388 6 289 11 369 22 383 8 9 11 19 8 23 -13 12 -94 22 -142 16 -84 -10 -81
1 -84 -287 -2 -179 1 -256 9 -261 7 -4 8 -11 1 -18 -5 -7 -13 -45 -16 -84 l-8
-73 -41 0 c-69 0 -69 0 -70 178 -1 88 2 155 6 149 5 -7 8 -3 8 11 0 13 -3 21
-7 19 -5 -3 -8 37 -9 88 0 52 4 91 8 89 4 -3 8 18 8 45 0 31 -4 51 -11 51 -7
0 -5 10 5 25 23 35 20 54 -10 65 -32 13 -119 13 -161 1 -24 -7 -35 -6 -44 5
-9 11 -48 14 -189 14 -162 0 -178 -2 -194 -19z m409 -60 c3 -5 1 -12 -4 -15
-9 -6 -7 -437 2 -531 2 -22 0 -45 -5 -52 -5 -7 -5 -14 2 -18 14 -8 13 -48 -2
-80 -9 -20 -17 -25 -32 -21 -12 3 -56 6 -100 6 l-79 0 6 33 c3 17 8 41 11 52
3 11 21 79 39 150 19 72 48 171 65 220 17 50 32 105 34 123 1 17 5 32 8 32 6
0 30 74 30 95 0 17 16 20 25 6z"/>
</g>
</svg>
